<svg xmlns="http://www.w3.org/2000/svg" width="222" height="300" viewBox="0 0 222 300">
  <path style="fill:#e91e63" d="M 111.37891 0 C 108.87861 0.0016336318 106.36364 0.083426094 103.83789 0.24609375 C 82.24266 1.6295016 62.358736 8.922306 45.6875 21.537109 C 20.668921 40.459315 4.4664178 70.401365 0.80859375 104.44727 C -0.80928996 119.47717 0.012319815 136.75829 3.1542969 153.80469 C 7.6562342 178.16673 17.784982 202.66895 31.806641 223.0918 C 44.374549 241.40436 60.530107 256.83391 76.802734 266.0957 C 80.085397 267.94806 86.744742 271.11278 89.886719 272.28516 C 94.927951 274.16096 100.17953 275.47435 105.08008 276.08398 C 106.48693 276.24812 107.68355 276.45895 107.77734 276.5293 C 107.96492 276.74033 107.42597 282.08699 106.98047 284.17383 C 106.1598 288.08958 103.83854 293.80978 102.33789 295.5918 C 101.56412 296.5297 101.5641 297.30436 102.38477 298.05469 C 103.76817 299.3912 106.44135 299.97655 111.10742 300 C 116.10176 300 118.86852 299.41465 120.32227 298.05469 C 121.16638 297.25747 121.11955 296.60015 120.1582 295.33398 C 117.48518 291.81685 114.88282 283.09418 114.85938 277.56055 C 114.85938 276.29438 114.50615 276.4592 118.375 275.9668 C 139.21991 273.24688 163.37246 256.87975 182.88086 232.23633 C 194.1357 218.00364 203.7959 201.00369 210.5957 183.34766 C 221.52228 154.97607 225.22646 124.23609 220.93555 97.552734 C 215.91776 66.203307 200.2776 39.146249 176.99414 21.537109 C 158.37969 7.4487715 135.54848 -0.015791774 111.37891 0 z M 67.552734 48.019531 C 68.21907 48.009511 68.88648 48.134012 69.587891 48.394531 C 70.710039 48.795435 71.771622 49.818492 91.070312 69.117188 L 111.35156 89.398438 L 131.5918 69.15625 C 149.42756 51.320491 151.97268 48.855887 152.89453 48.455078 C 154.29733 47.893948 155.56008 47.873493 156.96289 48.394531 C 158.06509 48.815371 158.92593 49.59785 171.07031 61.742188 C 183.17458 73.846453 184.01716 74.767434 184.41797 75.849609 C 184.97909 77.2925 184.85817 79.057265 184.13672 80.339844 C 183.77597 80.941022 176.70207 88.174879 163.51562 101.36133 L 143.41602 121.46094 L 163.51562 141.5625 C 176.70206 154.74893 183.77595 161.98279 184.13672 162.58398 C 184.85817 163.86653 184.97909 165.63131 184.41797 167.07422 C 184.01726 168.1565 183.1746 169.07738 171.07031 181.18164 C 158.92595 193.326 158.06511 194.10845 156.96289 194.5293 C 155.56007 195.05044 154.29734 195.02987 152.89453 194.46875 C 151.97258 194.06801 149.42756 191.60334 131.5918 173.76758 L 111.35156 153.52539 L 91.271484 173.60742 C 78.065024 186.81388 70.829701 193.88728 70.228516 194.24805 C 68.94595 194.96947 67.183144 195.09041 65.740234 194.5293 C 64.657988 194.12859 63.736063 193.28685 51.671875 181.22266 C 40.489441 170.04022 38.724523 168.19477 38.34375 167.29297 C 37.782642 165.89016 37.764132 164.62939 38.285156 163.22656 C 38.686037 162.1044 39.707169 161.04088 59.005859 141.74219 L 79.287109 121.46094 L 59.005859 101.18164 C 39.707164 81.882955 38.685956 80.819517 38.285156 79.697266 C 37.764105 78.294455 37.782628 77.033666 38.34375 75.630859 C 38.724517 74.729041 40.488514 72.884533 51.630859 61.742188 C 62.773194 50.599851 64.617713 48.835845 65.519531 48.455078 C 66.220934 48.174518 66.886399 48.029551 67.552734 48.019531 z"/>
</svg>
