<?xml version="1.0" encoding="UTF-8" standalone="no"?>
<svg
   xmlns:dc="http://purl.org/dc/elements/1.1/"
   xmlns:cc="http://creativecommons.org/ns#"
   xmlns:rdf="http://www.w3.org/1999/02/22-rdf-syntax-ns#"
   xmlns:svg="http://www.w3.org/2000/svg"
   xmlns="http://www.w3.org/2000/svg"
   xmlns:sodipodi="http://sodipodi.sourceforge.net/DTD/sodipodi-0.dtd"
   xmlns:inkscape="http://www.inkscape.org/namespaces/inkscape"
   width="222"
   height="300"
   viewBox="0 0 222 300"
   version="1.1"
   id="svg4"
   sodipodi:docname="balloon-plus.svg"
   inkscape:version="0.92.1 r15371">
  <metadata
     id="metadata10">
    <rdf:RDF>
      <cc:Work
         rdf:about="">
        <dc:format>image/svg+xml</dc:format>
        <dc:type
           rdf:resource="http://purl.org/dc/dcmitype/StillImage" />
      </cc:Work>
    </rdf:RDF>
  </metadata>
  <defs
     id="defs8" />
  <sodipodi:namedview
     pagecolor="#ffffff"
     bordercolor="#666666"
     borderopacity="1"
     objecttolerance="10"
     gridtolerance="10"
     guidetolerance="10"
     inkscape:pageopacity="0"
     inkscape:pageshadow="2"
     inkscape:window-width="1366"
     inkscape:window-height="715"
     id="namedview6"
     showgrid="false"
     inkscape:zoom="1.1125147"
     inkscape:cx="156.88038"
     inkscape:cy="141.15439"
     inkscape:window-x="1352"
     inkscape:window-y="-8"
     inkscape:window-maximized="1"
     inkscape:current-layer="svg4" />
  <path
     style="fill:#61dafb;fill-opacity:1;stroke-width:0.02344759"
     d="M 111.37891 0 C 108.87861 0.0016336318 106.36364 0.083426094 103.83789 0.24609375 C 82.24266 1.6295016 62.358736 8.922306 45.6875 21.537109 C 20.668921 40.459315 4.4664178 70.401365 0.80859375 104.44727 C -0.80928996 119.47717 0.012319815 136.75829 3.1542969 153.80469 C 7.6562342 178.16673 17.784982 202.66895 31.806641 223.0918 C 44.374549 241.40436 60.530107 256.83391 76.802734 266.0957 C 80.085397 267.94806 86.744742 271.11278 89.886719 272.28516 C 94.927951 274.16096 100.17953 275.47435 105.08008 276.08398 C 106.48693 276.24812 107.68355 276.45895 107.77734 276.5293 C 107.96492 276.74033 107.42597 282.08699 106.98047 284.17383 C 106.1598 288.08958 103.83854 293.80978 102.33789 295.5918 C 101.56412 296.5297 101.5641 297.30436 102.38477 298.05469 C 103.76817 299.3912 106.44135 299.97655 111.10742 300 C 116.10176 300 118.86852 299.41465 120.32227 298.05469 C 121.16638 297.25747 121.11955 296.60015 120.1582 295.33398 C 117.48518 291.81685 114.88282 283.09418 114.85938 277.56055 C 114.85938 276.29438 114.50615 276.4592 118.375 275.9668 C 139.21991 273.24688 163.37246 256.87975 182.88086 232.23633 C 194.1357 218.00364 203.7959 201.00369 210.5957 183.34766 C 221.52228 154.97607 225.22646 124.23609 220.93555 97.552734 C 215.91776 66.203307 200.2776 39.146249 176.99414 21.537109 C 158.37969 7.4487715 135.54848 -0.015791774 111.37891 0 z M 111.33789 69.003906 C 123.11348 69.003906 123.97201 69.043568 124.69336 69.375 C 125.66816 69.803912 126.46728 70.720511 126.74023 71.695312 C 126.85718 72.163215 126.93555 79.122787 126.93555 91.951172 L 126.93555 111.50586 L 146.49023 111.50586 C 159.3186 111.50586 166.27818 111.58424 166.74609 111.70117 C 167.72089 111.97411 168.63748 112.77324 169.06641 113.74805 C 169.39794 114.46942 169.4375 115.32596 169.4375 127.10156 C 169.4375 138.91615 169.39783 139.71617 169.06641 140.45703 C 168.63748 141.39283 168.0139 141.99683 167.05859 142.40625 C 166.41521 142.65978 163.97841 142.69922 146.62695 142.69922 L 126.93555 142.69922 L 126.93555 162.23438 C 126.93555 175.08223 126.85717 182.04185 126.74023 182.50977 C 126.46728 183.48456 125.66816 184.40115 124.69336 184.83008 C 123.97201 185.16159 123.11355 185.20117 111.37695 185.20117 C 100.49816 185.20117 98.744968 185.16164 98.121094 184.9082 C 97.165792 184.49878 96.542204 183.89478 96.113281 182.95898 C 95.762426 182.21813 95.742188 181.20435 95.742188 162.42969 L 95.742188 142.69922 L 76.011719 142.69922 C 57.237054 142.69922 56.22327 142.67906 55.482422 142.32812 C 54.546612 141.89921 53.942618 141.27561 53.533203 140.32031 C 53.279752 139.69643 53.240234 137.94135 53.240234 127.10156 C 53.240234 116.26178 53.279753 114.50865 53.533203 113.88477 C 53.942618 112.92947 54.546612 112.30392 55.482422 111.875 C 56.22327 111.52417 57.237054 111.50586 76.011719 111.50586 L 95.742188 111.50586 L 95.742188 91.814453 C 95.742188 74.463 95.781711 72.026183 96.035156 71.382812 C 96.444569 70.427508 97.048574 69.803912 97.984375 69.375 C 98.725221 69.043566 99.523288 69.003906 111.33789 69.003906 z "
     id="path2" />
</svg>
