<svg xmlns="http://www.w3.org/2000/svg" viewBox="0 0 207.29666 184.40433" width="207.29666" height="184.40433">
  <g transform="matrix(0.82835696,0,0,1,-26.698434,-256.97467)">
    <path style="fill:#576d7e" d="m 76.368591,344.65952 h -35.31 c -4.873,0 -8.828,-3.946 -8.828,-8.828 0,-4.882 3.955,-8.828 8.828,-8.828 h 35.31 c 4.873,0 8.828,3.946 8.828,8.828 0,4.882 -3.955,8.828 -8.828,8.828"/>
    <path style="fill:#576d7e" d="m 236.02747,432.552 c -19.474,0 -34.4338,-15.85672 -35.31,-35.31 l -4.60219,-102.17755 c -0.79107,-17.56323 -7.63607,-21.92735 -22.23707,-21.92735 -14.601,0 -21.77523,5.50205 -23.44213,20.20152 l -2.68461,23.67406 c -3.26231,28.76849 -32.4876,28.81694 -35.31,27.26332 -4.26897,-2.3499 -8.828,-3.946 -8.828,-8.828 0,-4.882 3.18816,-5.71683 8.06097,-5.75988 5.65954,-0.05 18.9157,1.30478 21.10664,-21.49729 l 2.10934,-21.95288 c 2.1647,-22.52904 21.57052,-29.42755 40.37412,-29.26033 16.27156,0.14471 38.39166,7.06612 39.27277,31.95058 l 3.83516,108.3128 c 0.34455,9.7309 7.918,17.655 17.655,17.655 4.873,0 8.828,3.946 8.828,8.828 0,4.882 -3.955,8.828 -8.828,8.828"/>
    <polygon transform="translate(14.573591,0.38351554)" points="61.791,353.103 105.929,353.103 105.929,317.793 61.791,317.793 " style="fill:#34485c" />
    <polygon style="fill:#34485c" points="282.481,441.379 282.481,406.069 229.515,406.069 229.515,441.379 "/>
  </g>
</svg>
