<svg xmlns="http://www.w3.org/2000/svg" viewBox="0 0 353.104 35.310002" width="353.104" height="35.310001">
  <g transform="translate(-141.239)">
    <path style="fill:#576d7e" d="m 406.071,26.483 h -52.966 c -4.873,0 -8.828,-3.946 -8.828,-8.828 0,-4.882 3.955,-8.828 8.828,-8.828 h 52.966 c 4.873,0 8.828,3.946 8.828,8.828 0,4.882 -3.955,8.828 -8.828,8.828"/>
    <path style="fill:#576d7e" d="m 282.485,26.483 h -52.966 c -4.873,0 -8.828,-3.946 -8.828,-8.828 0,-4.882 3.955,-8.828 8.828,-8.828 h 52.966 c 4.873,0 8.828,3.946 8.828,8.828 0,4.882 -3.955,8.828 -8.828,8.828"/>
    <polygon style="fill:#34485c" points="353.101,35.31 353.101,0 282.481,0 282.481,35.31"/>
    <polygon style="fill:#34485c" points="494.343,35.31 494.343,0 406.067,0 406.067,35.31"/>
    <polygon style="fill:#34485c" points="229.515,35.31 229.515,0 141.239,0 141.239,35.31"/>
  </g>
</svg>